<svg id="Ebene_1" data-name="Ebene 1" xmlns="http://www.w3.org/2000/svg" viewBox="0 0 595.28 229.06"><g id="g10"><g id="g36"><g id="g42"><path d="M302.34,28.61c.8-2.94,1.47-5.93,2.41-8.82A29.87,29.87,0,0,1,313,6.85a25.22,25.22,0,0,1,13-6.5A23.69,23.69,0,0,1,342,3.2a26.43,26.43,0,0,1,8.25,7.24,29.78,29.78,0,0,1,5.44,11.35q4.33,18.8,8.74,37.55,5.07,21.72,10.14,43.43,4.64,19.88,9.26,39.74,4.49,19.26,9,38.5c1.36,5.85,2.71,11.7,4.09,17.54a17.75,17.75,0,0,0,3.52,7.31,12.06,12.06,0,0,0,2.59,2.4,7.64,7.64,0,0,0,9,0,11.85,11.85,0,0,0,2.49-2.3,17.87,17.87,0,0,0,3.25-6.21c2.06-6.68,4.1-13.37,6.19-20q12.58-40.17,25.19-80.34c.56-1.79,1.1-3.59,1.82-5.32a30.15,30.15,0,0,1,10.23-13.09,24,24,0,0,1,11.49-4.59A23.75,23.75,0,0,1,486.93,79a28.53,28.53,0,0,1,10.49,9.71,33.67,33.67,0,0,1,4,8.67l8.76,28.38c1.48,4.8,2.91,9.62,4.48,14.39a13.19,13.19,0,0,0,7.43,8.09,8.66,8.66,0,0,0,6.26.24,12.29,12.29,0,0,0,4.22-2.29,18.32,18.32,0,0,0,5.53-7.89,27.16,27.16,0,0,1,4-7.09,28.37,28.37,0,0,1,16.51-10.57,26.9,26.9,0,0,1,5.93-.68l28.5,0c.38,0,.77,0,1.14,0a.91.91,0,0,1,1,.83,6.45,6.45,0,0,1,.06,1q0,7.89,0,15.77c0,.23,0,.47,0,.7a.92.92,0,0,1-1,1c-.48,0-.95,0-1.43,0l-26.79.07c-.57,0-1.14,0-1.71,0a9,9,0,0,0-7.79,5.54c-.35.72-.6,1.49-.93,2.21a36.83,36.83,0,0,1-13,15.85,30,30,0,0,1-12.16,4.91,28.72,28.72,0,0,1-21.17-4.57,36,36,0,0,1-12.17-14.07,9.36,9.36,0,0,1-.54-1.45l-13.35-43c-.21-.67-.39-1.35-.6-2a12.44,12.44,0,0,0-2-4A12,12,0,0,0,479.07,97a4.67,4.67,0,0,0-6.77,0,13.1,13.1,0,0,0-1.81,2,12.92,12.92,0,0,0-2,4q-15.52,49.52-31,99c-.35,1.12-.62,2.26-1,3.38a35.48,35.48,0,0,1-9.88,16,28.51,28.51,0,0,1-13.55,7.1A25.28,25.28,0,0,1,409,229a27.22,27.22,0,0,1-18.45-5.81,34.11,34.11,0,0,1-10.94-14.67,56.18,56.18,0,0,1-2.5-8.64L367,156.32Q362.49,137.14,358,118l-9.6-41.11q-4.49-19.24-9-38.51-1.41-6.09-2.85-12.19a10.09,10.09,0,0,0-3-5.17c-2.23-2.08-4.68-2.12-7-.16a10.16,10.16,0,0,0-2.29,2.85,15.45,15.45,0,0,0-1.48,3.8c-.95,3.58-1.89,7.16-2.85,10.75-.09.34-.24.68-.36,1-1.05-.22-1.16-.33-1-1,.23-1.24.5-2.48.76-3.72a70.5,70.5,0,0,0,1-7.67,4.13,4.13,0,0,0-.08-.78c-.46,0-.51.32-.62.57-.56,1.29-1.06,2.61-1.7,3.87s-1.35,2.36-2.09,3.51a6.32,6.32,0,0,1-1.93,1.85,3.8,3.8,0,0,1-.71.25,3.84,3.84,0,0,1,.6-2c.26-.55.55-1.09.85-1.62s.66-1.13,1-1.65c-.17-.41-.46-.4-.75-.38a2.62,2.62,0,0,0-1.63.78c-.66.6-1.27,1.26-2,2a1.2,1.2,0,0,1,.08-.9,57.43,57.43,0,0,0,1.78-7.52,47,47,0,0,0,.76-7c0-.26.13-.57-.3-.79l-.51,1.1c-.75,1.62-1.44,3.27-2.27,4.85a19.38,19.38,0,0,1-1.92,2.78,4.88,4.88,0,0,1-2,1.51.45.45,0,0,1-.11-.67c.68-1.34,1.38-2.67,2.07-4,.14-.28.25-.57.38-.86a1.38,1.38,0,0,0-1.43,0,6.14,6.14,0,0,0-2,1.58,22.87,22.87,0,0,0-2.64,3.83c-.27.49-.57,1-.86,1.45Z"/><path d="M309.2,78.75c-.4,1.63-.77,3.28-1.2,4.91q-3.44,13.07-6.88,26.13a35.11,35.11,0,0,1-6.55,13.32,28.27,28.27,0,0,1-13.23,9.39,24.64,24.64,0,0,1-9.82,1.26A26.36,26.36,0,0,1,256,127.17,32,32,0,0,1,245.64,110c-3.54-15-7-30.06-10.48-45.09-.35-1.5-.7-3-1.14-4.5a19.21,19.21,0,0,0-3.63-6.8A13,13,0,0,0,227.45,51a8.44,8.44,0,0,0-8-.85,12.31,12.31,0,0,0-3.92,2.5,18.72,18.72,0,0,0-5.26,8.88q-11.35,40-22.69,80c-3.37,11.87-6.69,23.75-10.16,35.6a29.62,29.62,0,0,1-11.13,15.92,24.59,24.59,0,0,1-29.79-.39,29.45,29.45,0,0,1-9.62-12.86c-1.68-4.18-3.26-8.4-4.89-12.61q-15.49-40.16-31-80.31a15.12,15.12,0,0,0-2-3.72,9.37,9.37,0,0,0-2.7-2.47,5.29,5.29,0,0,0-5.79.1,9,9,0,0,0-2.12,1.86,14.19,14.19,0,0,0-2.11,3.5c-1,2.41-2.06,4.83-3.14,7.23-4.23,9.33-8.49,18.65-12.69,28a29,29,0,0,1-3.81,6.08A39,39,0,0,1,48,135.62a31.92,31.92,0,0,1-14,5.43,29.55,29.55,0,0,1-5.4.3c-1.33-.06-2.66,0-4,0l-22.52.06c-.38,0-.76,0-1.14,0a.91.91,0,0,1-.86-.79,8.19,8.19,0,0,1,0-1c0-5.2,0-10.41,0-15.62,0-1.64.09-1.86,1.82-1.86,6.22,0,12.44-.08,18.67-.13,3.13,0,6.26-.05,9.4-.05a12.49,12.49,0,0,0,7.86-2.87,20.67,20.67,0,0,0,4.15-4.41,8.56,8.56,0,0,0,.82-1.48q7.2-15.86,14.39-31.71c.29-.64.53-1.3.79-2a32,32,0,0,1,8.08-12,26,26,0,0,1,13.7-6.73,24.66,24.66,0,0,1,17.18,3.57A29.23,29.23,0,0,1,107.32,75.7a32.48,32.48,0,0,1,1.77,3.84q14.5,37.51,29,75,3.31,8.61,6.63,17.22A13.4,13.4,0,0,0,147,176a10,10,0,0,0,1.65,1.54,4.85,4.85,0,0,0,6,0,8.8,8.8,0,0,0,2.2-2.19,13.17,13.17,0,0,0,2-4.17q3.93-13.87,7.9-27.75Q176.35,109.51,186,75.6q2.28-8.05,4.58-16.11c.43-1.54.8-3.09,1.28-4.61a37.71,37.71,0,0,1,8.45-14.52,31.48,31.48,0,0,1,15.19-9.25,27.16,27.16,0,0,1,8.6-.94,28.64,28.64,0,0,1,15,5.24,34.92,34.92,0,0,1,10.5,11.88,43.39,43.39,0,0,1,4.25,11.45q4.95,21.37,9.92,42.76c.32,1.37.6,2.75.95,4.11a13.57,13.57,0,0,0,3.69,6.56c3.16,3.08,6.76,3,9.91,0a14.17,14.17,0,0,0,3.62-6.3c.53-1.8,1-3.62,1.45-5.43,1.32-5,2.65-10,3.95-15a6.06,6.06,0,0,1,1.14-2.23c1.08-1.37,2.08-2.8,3.12-4.2.22-.29.34-.7.81-.69.27,0,.4.49.17,1.12-.41,1.1-.9,2.17-1.34,3.26-.13.32-.47.61-.25,1.09.55-.11.84-.57,1.2-.9s.78-.82,1.17-1.22a5.63,5.63,0,0,1,1.18-1.15c0,.31.06.52,0,.65a10,10,0,0,1-.78,1.34,21.2,21.2,0,0,0-2.37,4,23,23,0,0,0-.93,2.8,2.48,2.48,0,0,0,0,1.76c.5.15.77-.19,1-.43,1.46-1.35,2.93-2.68,4.32-4.09a44.17,44.17,0,0,0,5-6.28,5.8,5.8,0,0,1,.7-.87.46.46,0,0,1,.4,0,.45.45,0,0,1,.23.31,1.16,1.16,0,0,1-.09.55c-.37,1-.76,1.92-1.13,2.88-.17.43-.51.79-.44,1.39.59-.05.87-.5,1.22-.83s.73-.74,1.08-1.12l1.13-1.23a1.38,1.38,0,0,1,0,1.12,21.14,21.14,0,0,1-2,4.07c-.23.39-.6.73-.56,1.24.35.21.56-.07.73-.24,1.15-1.18,2.36-2.32,3.4-3.59s2-2.75,3-4.13c.25-.35.48-.69.72-1Z"/><path d="M302.35,28.59l-.05.07,0-.05Z"/><polygon points="309.21 78.76 309.24 78.69 309.2 78.75 309.21 78.76"/></g></g></g></svg>